<svg xmlns="http://www.w3.org/2000/svg" width="139" height="37" viewBox="0 0 139 37" fill="none"><path d="M62.64 30.3361C61.104 30.3361 59.844 30.1561 58.86 29.7961C57.876 29.4121 57.144 28.7281 56.664 27.7441C56.208 26.7361 55.98 25.2841 55.98 23.3881V4.92012H61.524V22.5601C61.524 23.7361 61.68 24.5641 61.992 25.0441C62.328 25.5001 63.012 25.7281 64.044 25.7281C64.332 25.7281 64.572 25.7281 64.764 25.7281C64.956 25.7041 65.148 25.6801 65.34 25.6561V30.2281C65.1 30.2521 64.836 30.2641 64.548 30.2641C64.284 30.2881 63.984 30.3001 63.648 30.3001C63.336 30.3241 63 30.3361 62.64 30.3361ZM76.8628 30.5881C74.9908 30.5881 73.3108 30.2401 71.8228 29.5441C70.3348 28.8241 69.1468 27.7321 68.2588 26.2681C67.3948 24.8041 66.9628 22.9681 66.9628 20.7601V20.0401C66.9628 17.9281 67.3828 16.1761 68.2228 14.7841C69.0628 13.3921 70.2028 12.3481 71.6428 11.6521C73.1068 10.9321 74.7268 10.5721 76.5028 10.5721C79.6468 10.5721 82.0228 11.3881 83.6308 13.0201C85.2388 14.6281 86.0428 16.9681 86.0428 20.0401V22.0561H72.6508C72.6988 22.9921 72.9148 23.7721 73.2988 24.3961C73.7068 25.0201 74.2228 25.4761 74.8468 25.7641C75.4708 26.0281 76.1428 26.1601 76.8628 26.1601C77.9188 26.1601 78.7468 26.0041 79.3468 25.6921C79.9708 25.3561 80.3788 24.9121 80.5708 24.3601H85.6828C85.2988 26.4481 84.3508 28.0081 82.8388 29.0401C81.3268 30.0721 79.3348 30.5881 76.8628 30.5881ZM76.6828 15.0001C76.0108 15.0001 75.3748 15.1081 74.7748 15.3241C74.1748 15.5401 73.6828 15.9001 73.2988 16.4041C72.9388 16.8841 72.7348 17.5441 72.6868 18.3841H80.6068C80.6068 17.4961 80.4268 16.8121 80.0668 16.3321C79.7068 15.8281 79.2268 15.4801 78.6268 15.2881C78.0508 15.0961 77.4028 15.0001 76.6828 15.0001Z" fill="white"/><path d="M94.8021 30.1201L86.7741 11.0401H92.8941L97.7181 23.7481L102.11 11.0401H107.654L100.382 30.1201H94.8021ZM110.16 30.1201V11.0401H115.704V30.1201H110.16ZM112.932 9.24012C111.9 9.24012 111.096 8.97612 110.52 8.44812C109.968 7.89612 109.692 7.20012 109.692 6.36012C109.692 5.52012 109.968 4.83612 110.52 4.30812C111.096 3.75612 111.9 3.48012 112.932 3.48012C113.964 3.48012 114.756 3.75612 115.308 4.30812C115.884 4.83612 116.172 5.52012 116.172 6.36012C116.172 7.20012 115.884 7.89612 115.308 8.44812C114.756 8.97612 113.964 9.24012 112.932 9.24012ZM127.959 30.5881C126.399 30.5881 125.055 30.4321 123.927 30.1201C122.823 29.7841 121.911 29.3401 121.191 28.7881C120.471 28.2121 119.931 27.5521 119.571 26.8081C119.211 26.0401 119.007 25.2241 118.959 24.3601H124.503C124.647 24.8881 124.959 25.3561 125.439 25.7641C125.919 26.1481 126.759 26.3401 127.959 26.3401C129.183 26.3401 130.059 26.1721 130.587 25.8361C131.115 25.5001 131.379 25.0561 131.379 24.5041C131.379 24.2161 131.259 23.9641 131.019 23.7481C130.803 23.5081 130.383 23.2921 129.759 23.1001C129.159 22.9081 128.283 22.7161 127.131 22.5241C126.075 22.3561 125.079 22.1401 124.143 21.8761C123.231 21.6121 122.427 21.2641 121.731 20.8321C121.035 20.3761 120.483 19.8001 120.075 19.1041C119.691 18.4081 119.499 17.5321 119.499 16.4761C119.499 15.3481 119.835 14.3401 120.507 13.4521C121.179 12.5641 122.151 11.8681 123.423 11.3641C124.695 10.8361 126.207 10.5721 127.959 10.5721C129.951 10.5721 131.523 10.8841 132.675 11.5081C133.851 12.1081 134.715 12.8881 135.267 13.8481C135.819 14.7841 136.143 15.7681 136.239 16.8001H130.659C130.515 16.2001 130.203 15.7201 129.723 15.3601C129.267 15.0001 128.679 14.8201 127.959 14.8201C126.855 14.8201 126.087 14.9881 125.655 15.3241C125.247 15.6601 125.043 16.0681 125.043 16.5481C125.043 17.0281 125.379 17.4121 126.051 17.7001C126.723 17.9641 127.791 18.1921 129.255 18.3841C130.311 18.5281 131.295 18.7321 132.207 18.9961C133.143 19.2601 133.959 19.6321 134.655 20.1121C135.375 20.5681 135.939 21.1561 136.347 21.8761C136.755 22.5721 136.959 23.4241 136.959 24.4321C136.959 25.6321 136.611 26.7001 135.915 27.6361C135.243 28.5721 134.235 29.3041 132.891 29.8321C131.571 30.3361 129.927 30.5881 127.959 30.5881Z" fill="#009A5E"/><path d="M0 6.12012C0 2.80641 2.68629 0.120117 6 0.120117H16.4313V10.5514C16.4313 13.8651 13.745 16.5514 10.4313 16.5514H0V6.12012Z" fill="#009A5E"/><path d="M0 30.1201C0 33.4338 2.68629 36.1201 6 36.1201H16.4313V25.6888C16.4313 22.3751 13.745 19.6888 10.4313 19.6888H0V30.1201Z" fill="white"/><path d="M19.5687 10.5518C19.5687 13.8655 22.255 16.5518 25.5687 16.5518H36V6.12048C36 2.80678 33.3137 0.120483 30 0.120483H19.5687V10.5518Z" fill="white"/><path d="M19.5687 25.6885C19.5687 22.3748 22.255 19.6885 25.5687 19.6885H36V30.1198C36 33.4335 33.3137 36.1198 30 36.1198H19.5687V25.6885Z" fill="#009A5E"/></svg>