<svg xmlns="http://www.w3.org/2000/svg" width="139" height="36" viewBox="0 0 139 36" fill="none"><path d="M62.64 30.216C61.104 30.216 59.844 30.036 58.86 29.676C57.876 29.292 57.144 28.608 56.664 27.624C56.208 26.616 55.98 25.164 55.98 23.268V4.8H61.524V22.44C61.524 23.616 61.68 24.444 61.992 24.924C62.328 25.38 63.012 25.608 64.044 25.608C64.332 25.608 64.572 25.608 64.764 25.608C64.956 25.584 65.148 25.56 65.34 25.536V30.108C65.1 30.132 64.836 30.144 64.548 30.144C64.284 30.168 63.984 30.18 63.648 30.18C63.336 30.204 63 30.216 62.64 30.216ZM76.8628 30.468C74.9908 30.468 73.3108 30.12 71.8228 29.424C70.3348 28.704 69.1468 27.612 68.2588 26.148C67.3948 24.684 66.9628 22.848 66.9628 20.64V19.92C66.9628 17.808 67.3828 16.056 68.2228 14.664C69.0628 13.272 70.2028 12.228 71.6428 11.532C73.1068 10.812 74.7268 10.452 76.5028 10.452C79.6468 10.452 82.0228 11.268 83.6308 12.9C85.2388 14.508 86.0428 16.848 86.0428 19.92V21.936H72.6508C72.6988 22.872 72.9148 23.652 73.2988 24.276C73.7068 24.9 74.2228 25.356 74.8468 25.644C75.4708 25.908 76.1428 26.04 76.8628 26.04C77.9188 26.04 78.7468 25.884 79.3468 25.572C79.9708 25.236 80.3788 24.792 80.5708 24.24H85.6828C85.2988 26.328 84.3508 27.888 82.8388 28.92C81.3268 29.952 79.3348 30.468 76.8628 30.468ZM76.6828 14.88C76.0108 14.88 75.3748 14.988 74.7748 15.204C74.1748 15.42 73.6828 15.78 73.2988 16.284C72.9388 16.764 72.7348 17.424 72.6868 18.264H80.6068C80.6068 17.376 80.4268 16.692 80.0668 16.212C79.7068 15.708 79.2268 15.36 78.6268 15.168C78.0508 14.976 77.4028 14.88 76.6828 14.88Z" fill="#004F4C"/><path d="M94.8021 30L86.7741 10.92H92.8941L97.7181 23.628L102.11 10.92H107.654L100.382 30H94.8021ZM110.16 30V10.92H115.704V30H110.16ZM112.932 9.12C111.9 9.12 111.096 8.856 110.52 8.328C109.968 7.776 109.692 7.08 109.692 6.24C109.692 5.4 109.968 4.716 110.52 4.188C111.096 3.636 111.9 3.36 112.932 3.36C113.964 3.36 114.756 3.636 115.308 4.188C115.884 4.716 116.172 5.4 116.172 6.24C116.172 7.08 115.884 7.776 115.308 8.328C114.756 8.856 113.964 9.12 112.932 9.12ZM127.959 30.468C126.399 30.468 125.055 30.312 123.927 30C122.823 29.664 121.911 29.22 121.191 28.668C120.471 28.092 119.931 27.432 119.571 26.688C119.211 25.92 119.007 25.104 118.959 24.24H124.503C124.647 24.768 124.959 25.236 125.439 25.644C125.919 26.028 126.759 26.22 127.959 26.22C129.183 26.22 130.059 26.052 130.587 25.716C131.115 25.38 131.379 24.936 131.379 24.384C131.379 24.096 131.259 23.844 131.019 23.628C130.803 23.388 130.383 23.172 129.759 22.98C129.159 22.788 128.283 22.596 127.131 22.404C126.075 22.236 125.079 22.02 124.143 21.756C123.231 21.492 122.427 21.144 121.731 20.712C121.035 20.256 120.483 19.68 120.075 18.984C119.691 18.288 119.499 17.412 119.499 16.356C119.499 15.228 119.835 14.22 120.507 13.332C121.179 12.444 122.151 11.748 123.423 11.244C124.695 10.716 126.207 10.452 127.959 10.452C129.951 10.452 131.523 10.764 132.675 11.388C133.851 11.988 134.715 12.768 135.267 13.728C135.819 14.664 136.143 15.648 136.239 16.68H130.659C130.515 16.08 130.203 15.6 129.723 15.24C129.267 14.88 128.679 14.7 127.959 14.7C126.855 14.7 126.087 14.868 125.655 15.204C125.247 15.54 125.043 15.948 125.043 16.428C125.043 16.908 125.379 17.292 126.051 17.58C126.723 17.844 127.791 18.072 129.255 18.264C130.311 18.408 131.295 18.612 132.207 18.876C133.143 19.14 133.959 19.512 134.655 19.992C135.375 20.448 135.939 21.036 136.347 21.756C136.755 22.452 136.959 23.304 136.959 24.312C136.959 25.512 136.611 26.58 135.915 27.516C135.243 28.452 134.235 29.184 132.891 29.712C131.571 30.216 129.927 30.468 127.959 30.468Z" fill="#009A5E"/><path d="M0 6C0 2.68629 2.68629 0 6 0H16.4313V10.4313C16.4313 13.745 13.745 16.4313 10.4313 16.4313H0V6Z" fill="#009A5E"/><path d="M0 30C0 33.3137 2.68629 36 6 36H16.4313V25.5687C16.4313 22.255 13.745 19.5687 10.4313 19.5687H0V30Z" fill="#004F4C"/><path d="M19.5687 10.4313C19.5687 13.745 22.255 16.4313 25.5687 16.4313H36V6C36 2.68629 33.3137 0 30 0H19.5687V10.4313Z" fill="#004F4C"/><path d="M19.5687 25.5687C19.5687 22.255 22.255 19.5687 25.5687 19.5687H36V30C36 33.3137 33.3137 36 30 36H19.5687V25.5687Z" fill="#009A5E"/></svg>